<?xml version="1.0" encoding="UTF-8" standalone="no"?>
<!-- Created with Inkscape (http://www.inkscape.org/) -->

<svg
   width="128"
   height="128"
   viewBox="0 0 33.866663 33.866663"
   version="1.1"
   id="svg1"
   xml:space="preserve"
   inkscape:version="1.4.2 (f4327f4, 2025-05-13)"
   sodipodi:docname="icon.svg"
   inkscape:export-filename="icon.png"
   inkscape:export-xdpi="96"
   inkscape:export-ydpi="96"
   xmlns:inkscape="http://www.inkscape.org/namespaces/inkscape"
   xmlns:sodipodi="http://sodipodi.sourceforge.net/DTD/sodipodi-0.dtd"
   xmlns="http://www.w3.org/2000/svg"
   xmlns:svg="http://www.w3.org/2000/svg"><sodipodi:namedview
     id="namedview1"
     pagecolor="#505050"
     bordercolor="#ffffff"
     borderopacity="1"
     inkscape:showpageshadow="0"
     inkscape:pageopacity="0"
     inkscape:pagecheckerboard="1"
     inkscape:deskcolor="#505050"
     inkscape:document-units="px"
     inkscape:zoom="11.816"
     inkscape:cx="75.321595"
     inkscape:cy="27.716655"
     inkscape:window-width="1920"
     inkscape:window-height="1009"
     inkscape:window-x="-8"
     inkscape:window-y="-8"
     inkscape:window-maximized="1"
     inkscape:current-layer="g6" /><defs
     id="defs1"><linearGradient
       id="swatch5"
       inkscape:swatch="solid"><stop
         style="stop-color:#000000;stop-opacity:1;"
         offset="0"
         id="stop5" /></linearGradient><linearGradient
       id="swatch4"
       inkscape:swatch="solid"><stop
         style="stop-color:#f14e32;stop-opacity:1;"
         offset="0"
         id="stop4" /></linearGradient></defs><g
     inkscape:label="Layer 1"
     inkscape:groupmode="layer"
     id="layer1"><g
       id="g6"
       transform="matrix(1.1667586,0,0,1.1667586,0,1.9310444)"><g
         style="fill:none;fill-opacity:1;stroke:#000000;stroke-opacity:1"
         id="g1"
         transform="matrix(1.285809,0,0,1.285809,-2.571618,-2.571618)"
         inkscape:label="git-branch"><path
           d="m 3,4.7128333 c 0,1.65685 1.34315,3 3,3 1.65685,0 3,-1.34315 3,-3 0,-1.65685 -1.34315,-3 -3,-3 -1.65685,0 -3,1.34315 -3,3 z"
           stroke="#323232"
           stroke-width="2"
           id="path1"
           style="fill:none;fill-opacity:1;stroke:#000000;stroke-opacity:1" /><path
           d="m 3,19.287167 c 0,1.6569 1.34315,3 3,3 1.65685,0 3,-1.3431 3,-3 0,-1.6569 -1.34315,-3 -3,-3 -1.65685,0 -3,1.3431 -3,3 z"
           stroke="#323232"
           stroke-width="2"
           id="path2"
           style="fill:none;fill-opacity:1;stroke:#000000;stroke-opacity:1" /><path
           d="m 12.014727,12 c 0,1.65685 1.3431,3 3,3 1.6569,0 3,-1.34315 3,-3 0,-1.65685 -1.3431,-3.0000002 -3,-3.0000002 -1.6569,0 -3,1.3431502 -3,3.0000002 z"
           stroke="#323232"
           stroke-width="2"
           id="path3"
           style="fill:none;fill-opacity:1;stroke:#000000;stroke-opacity:1" /><path
           d="M 6,15.474933 V 8.5250675"
           stroke="#323232"
           stroke-width="2.1525"
           stroke-linecap="round"
           stroke-linejoin="round"
           id="path4"
           style="fill:none;fill-opacity:1;stroke:#000000;stroke-opacity:1" /><path
           d="m 6,12 h 6"
           stroke="#323232"
           stroke-width="2"
           stroke-linecap="round"
           stroke-linejoin="round"
           id="path4-5"
           style="fill:none;fill-opacity:1;stroke:#000000;stroke-opacity:1" /></g><g
         id="g2"
         transform="matrix(0,-0.46474249,-0.46474249,0,29.173095,9.8714201)"
         inkscape:label="pin"
         style="fill:none;fill-opacity:1;stroke:#f14e32;stroke-opacity:1;stroke-width:0.9997951;stroke-dasharray:none"
         inkscape:transform-center-x="0.447211"
         inkscape:transform-center-y="0.56453266"><polygon
           points="3,27.6 3,29 4.4,29 13.4,20 12,18.6 "
           id="polygon1"
           transform="translate(-8.2430726,-2.2354095)"
           style="fill:#756563;fill-opacity:1;stroke:#342d2c;stroke-opacity:1;stroke-width:0.9997951;stroke-dasharray:none" /><path
           stroke="#000000"
           stroke-width="2"
           stroke-miterlimit="10"
           d="m 19.756927,9.2645905 -7.5,-7.5 c -1,1.1 -1.5,2.5 -1.5,3.9 L 6.1569274,10.26459 c -2.3,-0.5999995 -4.9,0 -6.69999997,1.8 l 9.89999997,9.9 c 1.9999996,-2 2.4999996,-4.8 1.6999996,-7.2 l 4.2,-4.2 c 1.6,0.4 3.3,-0.1 4.5,-1.2999995 z"
           id="path1-4"
           style="fill-opacity:1;stroke:#f03f20;stroke-opacity:1;stroke-width:0.9997951;stroke-dasharray:none;fill:#f14e32;opacity:1;fill-rule:nonzero" /></g></g></g></svg>
